<svg xmlns="http://www.w3.org/2000/svg" viewBox="0 0 830 392"><linearGradient id="a" gradientUnits="userSpaceOnUse" x1="397.346" y1="202.179" x2="585.575" y2="151.744"><stop offset="0" stop-color="#fff"/><stop offset="1" stop-color="#fff" stop-opacity="0"/></linearGradient><path d="M536.8 92.9l45.1 53.9c.2.2.3.4.5.6.2.2.3.4.5.7.2.2.3.5.5.7.2.2.3.5.5.7.2.2.3.5.4.8.1.3.3.5.4.8.1.3.3.5.4.8.1.3.3.5.4.8.1.3.2.6.4.8l.3.9.3.9.3.9.3.9c.1.3.2.6.2.9.1.3.1.6.2.9.1.3.1.6.2.9.1.3.1.6.2.9 0 .3.1.6.1.9 0 .3.1.6.1.9 0 .3 0 .6.1.9v3.6c0 .3 0 .6-.1.9 0 .3-.1.6-.1.9 0 .3-.1.6-.1.9 0 .3-.1.6-.2.9-.1.3-.1.6-.2.8-.1.3-.1.6-.2.8-.1.3-.2.5-.2.8-.1.3-.2.5-.3.8l-24.1 66.3c-.1.3-.2.5-.3.8-.1.3-.2.5-.3.8-.1.3-.2.5-.4.8-.1.3-.3.5-.4.8-.1.3-.3.5-.4.8-.1.3-.3.5-.5.8-.2.3-.3.5-.5.8-.2.2-.3.5-.5.7-.2.2-.4.5-.5.7-.2.2-.4.5-.6.7-.2.2-.4.5-.6.7-.2.2-.4.5-.6.7-.2.2-.4.5-.7.7l-.7.7c-.2.2-.5.4-.7.6-.2.2-.5.4-.7.6-.2.2-.5.4-.7.6-.2.2-.5.4-.8.6s-.5.4-.8.6c-.3.2-.5.4-.8.5-.3.2-.5.3-.8.5-.3.2-.5.3-.8.5-.3.2-.5.3-.8.4-.3.1-.5.3-.8.4-.3.1-.5.3-.8.4-.3.1-.5.2-.8.4-.3.1-.6.2-.8.3-.3.1-.6.2-.8.3-.3.1-.6.2-.8.3-.3.1-.5.2-.8.2-.3.1-.5.1-.8.2-.3.1-.5.1-.8.2l-69.2 12.3c-.3 0-.5.1-.8.1-.3 0-.6.1-.8.1-.3 0-.6.1-.9.1h-2.7c-.3 0-.6 0-.9-.1-.3 0-.6 0-.9-.1-.3 0-.6-.1-.9-.1s-.6-.1-.9-.1c-.3-.1-.6-.1-.9-.2-.3-.1-.6-.1-.9-.2-.3-.1-.6-.1-.9-.2l-.9-.3-.9-.3-.9-.3-.9-.3c-.3-.1-.6-.2-.9-.4-.3-.1-.6-.3-.9-.4-.3-.1-.6-.3-.8-.4-.3-.1-.6-.3-.8-.4-.3-.1-.5-.3-.8-.5-.3-.2-.5-.3-.8-.5-.3-.2-.5-.3-.8-.5-.3-.2-.5-.3-.7-.5-.2-.2-.5-.4-.7-.5-.2-.2-.5-.4-.7-.6-.2-.2-.4-.4-.7-.6l-.6-.6-.6-.6-.6-.6c-.2-.2-.4-.4-.5-.6L401.3 207c-.2-.2-.3-.4-.5-.6-.2-.2-.3-.4-.5-.7-.2-.2-.3-.5-.5-.7-.2-.2-.3-.5-.5-.7-.2-.2-.3-.5-.4-.8-.1-.3-.3-.5-.4-.8-.1-.3-.3-.5-.4-.8-.1-.3-.3-.5-.4-.8-.1-.3-.2-.6-.4-.8l-.3-.9-.3-.9-.3-.9-.3-.9c-.1-.3-.2-.6-.2-.9-.1-.3-.1-.6-.2-.9-.1-.3-.1-.6-.2-.9-.1-.3-.1-.6-.1-.9 0-.3-.1-.6-.1-.9 0-.3-.1-.6-.1-.9 0-.3 0-.6-.1-.9v-.9-.9-.9-.9c0-.3 0-.6.1-.9 0-.3.1-.6.1-.9 0-.3.1-.6.1-.9 0-.3.1-.6.2-.9.1-.3.1-.6.2-.8.1-.3.1-.6.2-.8.1-.3.2-.5.2-.8.1-.3.2-.5.3-.8l24.1-66.3c.1-.3.2-.5.3-.8.1-.3.2-.5.3-.8.1-.3.2-.5.4-.8.1-.3.3-.5.4-.8.1-.3.3-.5.4-.8.1-.3.3-.5.5-.8.2-.3.3-.5.5-.8.2-.2.3-.5.5-.7.2-.2.4-.5.5-.7.2-.2.4-.5.6-.7.2-.2.4-.5.6-.7.2-.2.4-.5.6-.7.2-.2.4-.5.7-.7l.7-.7c.2-.2.5-.4.7-.6.2-.2.5-.4.7-.6.2-.2.5-.4.7-.6.2-.2.5-.4.8-.6.3-.2.5-.4.8-.6.3-.2.5-.4.8-.5.3-.2.5-.3.8-.5.3-.2.5-.3.8-.5.3-.2.5-.3.8-.4.3-.1.5-.3.8-.4.3-.1.5-.3.8-.4.3-.1.5-.2.8-.4.3-.1.6-.2.8-.3.3-.1.6-.2.8-.3.3-.1.6-.2.8-.3.3-.1.5-.2.8-.2.3-.1.5-.1.8-.2.3-.1.5-.1.8-.2l69.2-12.3c.3 0 .5-.1.8-.1s.6-.1.8-.1c.3 0 .6-.1.8-.1h2.7c.3 0 .6 0 .9.1.3 0 .6.1.9.1.3 0 .6.1.9.1.3 0 .6.1.9.1.3.1.6.1.9.2.3.1.6.1.9.2.3.1.6.1.9.2l.9.3.9.3.9.3.9.3c.3.1.6.2.9.4.3.1.6.3.9.4.3.1.6.3.8.4.3.1.6.3.8.4.3.1.5.3.8.5.3.2.5.3.8.5.3.2.5.3.8.5.3.2.5.3.7.5.2.2.5.4.7.5.2.2.5.4.7.6.2.2.4.4.7.6l.6.6.6.6.6.6c.1.2.3.4.5.6z" fill="url(#a)" fill-opacity=".298"/><linearGradient id="b" gradientUnits="userSpaceOnUse" x1="51.759" y1="381.595" x2="4.795" y2="343.721" gradientTransform="matrix(.9996 0 0 -.9996 531.046 613.752)"><stop offset="0" stop-color="#fff"/><stop offset="1" stop-color="#e9e9e9"/></linearGradient><path d="M560.9 279.9c16.6 0 30-13.4 30-30s-13.4-30-30-30-30 13.4-30 30 13.5 30 30 30z" fill="url(#b)"/><linearGradient id="c" gradientUnits="userSpaceOnUse" x1="168.198" y1="353.653" x2="16.863" y2="235.084" gradientTransform="matrix(.9996 0 0 -.9996 148.2 520.79)"><stop offset="0" stop-color="#fff"/><stop offset="1" stop-color="#e9e9e9"/></linearGradient><path d="M291.9 137.9l45.1 53.9c.2.2.3.4.5.6.2.2.3.4.5.7.2.2.3.5.5.7.2.2.3.5.5.7.2.2.3.5.4.8.1.3.3.5.4.8.1.3.3.5.4.8.1.3.3.5.4.8.1.3.2.6.4.8l.3.9.3.9.3.9.3.9c.1.3.2.6.2.9.1.3.1.6.2.9.1.3.1.6.2.9.1.3.1.6.1.9 0 .3.1.6.1.9 0 .3.1.6.1.9 0 .3 0 .6.1.9v3.6c0 .3 0 .6-.1.9 0 .3-.1.6-.1.9 0 .3-.1.6-.1.9 0 .3-.1.6-.2.9-.1.3-.1.6-.2.8-.1.3-.1.6-.2.8-.1.3-.2.5-.2.8-.1.3-.2.5-.3.8l-24.1 66.3c-.1.3-.2.5-.3.8-.1.3-.2.5-.3.8-.1.3-.2.5-.4.8-.1.3-.3.5-.4.8s-.3.5-.4.8c-.1.3-.3.5-.5.8-.2.3-.3.5-.5.8-.2.2-.3.5-.5.7-.2.2-.4.5-.6.7-.2.2-.4.5-.6.7-.2.2-.4.5-.6.7-.2.2-.4.5-.6.7-.2.2-.4.5-.7.7l-.7.7c-.2.2-.5.4-.7.6-.2.2-.5.4-.7.6-.2.2-.5.4-.7.6-.2.2-.5.4-.7.6s-.5.4-.8.6c-.3.2-.5.4-.8.5-.3.2-.5.3-.8.5-.3.2-.5.3-.8.5-.3.2-.5.3-.8.4-.3.1-.5.3-.8.4-.3.1-.5.3-.8.4-.3.1-.5.2-.8.4-.3.1-.6.2-.8.3-.3.1-.6.2-.8.3-.3.1-.6.2-.8.3-.3.1-.5.2-.8.2-.3.1-.5.1-.8.2-.3.1-.5.1-.8.2l-69.2 12.3c-.3 0-.5.1-.8.1-.3 0-.6.1-.8.1s-.6.1-.8.1h-2.7c-.3 0-.6 0-.9-.1-.3 0-.6 0-.9-.1-.3 0-.6-.1-.9-.1-.3 0-.6-.1-.9-.1-.3-.1-.6-.1-.9-.2-.3-.1-.6-.1-.9-.2-.3-.1-.6-.1-.9-.2l-.9-.3-.9-.3-.9-.3-.9-.3c-.3-.1-.6-.2-.9-.4-.3-.1-.6-.3-.9-.4-.3-.1-.6-.3-.8-.4-.3-.1-.6-.3-.8-.4-.3-.1-.5-.3-.8-.5-.3-.2-.5-.3-.8-.5-.3-.2-.5-.3-.8-.5-.3-.2-.5-.3-.7-.5-.2-.2-.5-.4-.7-.5-.2-.2-.5-.4-.7-.6-.2-.2-.4-.4-.7-.6l-.6-.6-.6-.6-.6-.6c-.2-.2-.4-.4-.5-.6L156.4 252c-.2-.2-.3-.4-.5-.6-.2-.2-.3-.4-.5-.7-.2-.2-.3-.5-.5-.7-.2-.2-.3-.5-.5-.7-.2-.2-.3-.5-.4-.8-.1-.3-.3-.5-.4-.8-.1-.3-.3-.5-.4-.8-.1-.3-.3-.5-.4-.8-.1-.3-.2-.6-.4-.8l-.3-.9-.3-.9-.3-.9-.3-.9c-.1-.3-.2-.6-.2-.9-.1-.3-.1-.6-.2-.9-.1-.3-.1-.6-.2-.9-.1-.3-.1-.6-.1-.9 0-.3-.1-.6-.1-.9 0-.3-.1-.6-.1-.9 0-.3 0-.6-.1-.9v-.9-.9-.9-.9c0-.3 0-.6.1-.9 0-.3.1-.6.1-.9 0-.3.1-.6.1-.9 0-.3.1-.6.2-.9.1-.3.1-.6.2-.8.1-.3.1-.6.2-.8.1-.3.2-.5.2-.8.1-.3.2-.5.3-.8l24.1-66.3c.1-.3.2-.5.3-.8.1-.3.2-.5.3-.8.1-.3.2-.5.4-.8.1-.3.3-.5.4-.8.1-.3.3-.5.4-.8.1-.3.3-.5.5-.8.2-.3.3-.5.5-.7.2-.2.3-.5.5-.7.2-.2.4-.5.6-.7.2-.2.4-.5.6-.7.2-.2.4-.5.6-.7.2-.2.4-.5.6-.7.2-.2.4-.5.7-.7l.7-.7c.2-.2.5-.4.7-.6.2-.2.5-.4.7-.6.2-.2.5-.4.7-.6.2-.2.5-.4.7-.6.3-.2.5-.4.8-.6.3-.2.5-.4.8-.5.3-.2.5-.3.8-.5.3-.2.5-.3.8-.5.3-.2.5-.3.8-.4.3-.1.5-.3.8-.4.3-.1.5-.3.8-.4.3-.1.5-.2.8-.4.3-.1.6-.2.8-.3.3-.1.6-.2.8-.3.3-.1.6-.2.8-.3.3-.1.5-.2.8-.2.3-.1.5-.1.8-.2s.5-.1.8-.2l69.2-12.3c.3 0 .5-.1.8-.1.3 0 .6-.1.8-.1.3 0 .6-.1.8-.1h2.7c.3 0 .6 0 .9.1.3 0 .6 0 .9.1.3 0 .6.1.9.1.3 0 .6.1.9.1.3.1.6.1.9.2.3.1.6.1.9.2.3.1.6.1.9.2l.9.3.9.3.9.3.9.3c.3.1.6.2.9.4.3.1.6.3.9.4.3.1.6.3.8.4.3.1.6.3.8.4.3.1.5.3.8.5.3.2.5.3.8.5.3.2.5.3.8.5.3.2.5.3.7.5.2.2.5.4.7.5.2.2.5.4.7.6.2.2.4.4.7.6l.6.6.6.6.6.6.5.5z" fill="url(#c)"/><path d="M43.6 98.8l39.6 46.7c.1.1.1.2.2.2.1.1.1.2.2.2 0 .1.1.2.1.2 0 .1.1.2.1.2 0 .1 0 .2.1.2v.4c0 .1 0 .1-.1.2 0 .1-.1.1-.1.2s-.1.1-.1.2-.1.1-.2.2-.1.1-.2.1-.1.1-.2.1-.2.1-.2.1c-.1 0-.2.1-.3.1-.1 0-.2 0-.3.1l-61 10.7H20.1c-.1 0-.2 0-.2-.1-.1 0-.1-.1-.2-.1s-.1-.1-.2-.1-.1-.1-.1-.1c0-.1-.1-.1-.1-.2s-.1-.1-.1-.2 0-.1-.1-.2v-.2-.2-.3c0-.1 0-.2.1-.3 0-.1.1-.2.1-.3l21.3-57.4c0-.1.1-.2.1-.3 0-.1.1-.2.1-.2 0-.1.1-.2.1-.2l.2-.2.2-.2c.1 0 .1-.1.2-.1s.1-.1.2-.1.1 0 .2-.1.1 0 .2 0h.2c.1 0 .1 0 .2.1.1 0 .1.1.2.1s.1.1.2.1.1.1.2.2l.2.2c.2.1.2.2.3.3z" fill="#fff"/><path d="M136 287.4l23 27.3.3.3.3.3c.1.1.2.2.2.4s.2.2.2.4c.1.1.2.3.2.4.1.1.1.3.2.4.1.1.1.3.2.4.1.1.1.3.2.4.1.1.1.3.2.4.1.1.1.3.2.4.1.1.1.3.2.4.1.1.1.3.1.5s.1.3.1.5.1.3.1.5.1.3.1.5.1.3.1.5.1.3.1.5 0 .3.1.5v3.5c0 .2 0 .3-.1.5 0 .1 0 .3-.1.4s-.1.3-.1.4c0 .1-.1.3-.1.4 0 .1-.1.3-.1.4 0 .1-.1.3-.1.4 0 .1-.1.3-.1.4L149.3 362c0 .1-.1.3-.1.4-.1.1-.1.3-.2.4-.1.1-.1.3-.2.4-.1.1-.1.3-.2.4-.1.1-.1.3-.2.4-.1.1-.2.3-.2.4-.1.1-.2.3-.3.4-.1.1-.2.3-.3.4-.1.1-.2.2-.3.4-.1.1-.2.2-.3.4-.1.1-.2.2-.3.4-.1.1-.2.2-.3.4l-.3.3-.3.3c-.1.1-.2.2-.4.3-.1.1-.2.2-.4.3-.1.1-.2.2-.4.3-.1.1-.3.2-.4.3-.1.1-.3.2-.4.3-.1.1-.3.2-.4.3-.1.1-.3.2-.4.3-.1.1-.3.2-.4.2-.1.1-.3.2-.4.2-.1.1-.3.1-.4.2-.1.1-.3.1-.4.2-.1.1-.3.1-.4.2-.1.1-.3.1-.4.2-.1.1-.3.1-.4.1-.1 0-.3.1-.4.1-.1 0-.3.1-.4.1-.1 0-.3.1-.4.1-.1 0-.3.1-.4.1l-35.1 6.2c-.1 0-.3 0-.4.1h-3c-.2 0-.3 0-.5-.1-.2 0-.3 0-.5-.1-.2 0-.3-.1-.5-.1s-.3-.1-.5-.1-.3-.1-.5-.1-.3-.1-.5-.1-.3-.1-.5-.1c-.2-.1-.3-.1-.5-.2s-.3-.1-.4-.2c-.1-.1-.3-.1-.4-.2s-.3-.1-.4-.2c-.1-.1-.3-.1-.4-.2-.1-.1-.3-.1-.4-.2-.1-.1-.3-.2-.4-.2-.1-.1-.3-.2-.4-.2-.1-.1-.3-.2-.4-.3-.1-.1-.3-.2-.4-.3-.1-.1-.2-.2-.4-.3-.1-.1-.2-.2-.4-.3l-.3-.3-.3-.3-.3-.3-.3-.3-.3-.3-23-27.3-.3-.3-.3-.3c-.1-.1-.2-.2-.2-.4-.1-.1-.2-.2-.2-.4-.1-.1-.2-.3-.2-.4-.1-.1-.1-.3-.2-.4-.1-.1-.1-.3-.2-.4-.1-.1-.1-.3-.2-.4-.1-.1-.1-.3-.2-.4-.1-.1-.1-.3-.2-.4s-.1-.3-.2-.4c0-.1-.1-.3-.1-.5s-.1-.3-.1-.5-.1-.3-.1-.5-.1-.3-.1-.5-.1-.3-.1-.5-.1-.3-.1-.5 0-.3-.1-.5v-.5-.5-.5-.5-.5-.5-.5c0-.2 0-.3.1-.5s0-.3.1-.4.1-.3.1-.4c0-.1.1-.3.1-.4 0-.1.1-.3.1-.4 0-.1.1-.3.1-.4 0-.1.1-.3.1-.4L77 297.8c0-.1.1-.3.2-.4.1-.1.1-.3.2-.4.1-.1.1-.3.2-.4s.1-.3.2-.4c.1-.1.1-.3.2-.4.1-.1.2-.3.2-.4.1-.1.2-.3.3-.4.1-.1.2-.3.3-.4.1-.1.2-.2.3-.4.1-.1.2-.2.3-.4s.2-.2.3-.4c.1-.1.2-.2.3-.4l.3-.3.3-.3c.1-.1.2-.2.4-.3.1-.1.2-.2.4-.3.1-.1.2-.2.4-.3.1-.1.3-.2.4-.3.1-.1.3-.2.4-.3.1-.1.3-.2.4-.3.1-.1.3-.2.4-.3.1-.1.3-.2.4-.2.1-.1.3-.2.4-.2.1-.1.3-.1.4-.2.1-.1.3-.1.4-.2.1-.1.3-.1.4-.2.1-.1.3-.1.4-.2.1-.1.3-.1.4-.1.1 0 .3-.1.4-.1.1 0 .3-.1.4-.1.1 0 .3-.1.4-.1.1 0 .3-.1.4-.1l35.1-6.2c.1 0 .3 0 .4-.1h3c.2 0 .3 0 .5.1.2 0 .3 0 .5.1.2 0 .3.1.5.1s.3.1.5.1.3.1.5.1.3.1.5.1.3.1.5.1c.2.1.3.1.5.2.1.1.3.1.4.2.1.1.3.1.4.2.1.1.3.1.4.2.1.1.3.1.4.2.1.1.3.1.4.2.1.1.3.2.4.2.1.1.3.2.4.2.1.1.3.2.4.3.1.1.3.2.4.3.1.1.2.2.4.3.1.1.2.2.4.3s.2.2.3.3l.3.3.3.3.3.3c0 .2 0 .3.1.4z" fill="#4222dc"/><linearGradient id="d" gradientUnits="userSpaceOnUse" x1="630.252" y1="157.197" x2="818.481" y2="106.762"><stop offset="0" stop-color="#fff"/><stop offset="1" stop-color="#fff" stop-opacity="0"/></linearGradient><path d="M769.7 47.9l45.1 53.9c.2.2.3.4.5.6.2.2.3.4.5.7.2.2.3.5.5.7.2.2.3.5.5.7.2.2.3.5.4.8.1.3.3.5.4.8.1.3.3.5.4.8.1.3.3.5.4.8.1.3.2.6.4.8l.3.9.3.9.3.9.3.9c.1.3.2.6.2.9.1.3.1.6.2.9.1.3.1.6.2.9.1.3.1.6.2.9 0 .3.1.6.1.9 0 .3.1.6.1.9 0 .3 0 .6.1.9v3.6c0 .3 0 .6-.1.9 0 .3-.1.6-.1.9 0 .3-.1.6-.1.9 0 .3-.1.6-.2.9-.1.3-.1.6-.2.8-.1.3-.1.6-.2.8-.1.3-.2.5-.2.8-.1.3-.2.5-.3.8l-24.1 66.3c-.1.3-.2.5-.3.8-.1.3-.2.5-.3.8-.1.3-.2.5-.4.8-.1.3-.3.5-.4.8-.1.3-.3.5-.4.8-.1.3-.3.5-.5.8-.2.3-.3.5-.5.8-.2.2-.3.5-.5.7-.2.2-.4.5-.5.7-.2.2-.4.5-.6.7-.2.2-.4.5-.6.7-.2.2-.4.5-.6.7-.2.2-.4.5-.7.7l-.7.7c-.2.2-.5.4-.7.6-.2.2-.5.4-.7.6-.2.2-.5.4-.7.6-.2.2-.5.4-.8.6-.3.2-.5.4-.8.6-.3.2-.5.4-.8.5-.3.2-.5.3-.8.5-.3.2-.5.3-.8.5-.3.2-.5.3-.8.4-.3.1-.5.3-.8.4-.3.1-.5.3-.8.4-.3.1-.5.2-.8.4-.3.1-.6.2-.8.3-.3.1-.6.2-.8.3-.3.1-.6.2-.8.3-.3.1-.5.2-.8.2-.3.1-.5.1-.8.2-.3.1-.5.1-.8.2L705 225.5c-.3 0-.5.1-.8.1-.3 0-.6.1-.8.1-.3 0-.6.1-.8.1h-2.7c-.3 0-.6 0-.9-.1-.3 0-.6 0-.9-.1-.3 0-.6-.1-.9-.1-.3 0-.6-.1-.9-.1-.3-.1-.6-.1-.9-.2-.3-.1-.6-.1-.9-.2-.3-.1-.6-.1-.9-.2l-.9-.3-.9-.3-.9-.3-.9-.3c-.3-.1-.6-.2-.9-.4-.3-.1-.6-.3-.9-.4-.3-.1-.6-.3-.8-.4-.3-.1-.6-.3-.8-.4-.3-.1-.5-.3-.8-.5-.3-.2-.5-.3-.8-.5-.3-.2-.5-.3-.8-.5-.3-.2-.5-.3-.7-.5s-.5-.4-.7-.5c-.2-.2-.5-.4-.7-.6-.2-.2-.4-.4-.7-.6l-.6-.6-.6-.6-.6-.6c-.2-.2-.4-.4-.5-.6L634 162.2c-.2-.2-.3-.4-.5-.6-.2-.2-.3-.4-.5-.7-.2-.2-.3-.5-.5-.7-.2-.2-.3-.5-.5-.7-.2-.2-.3-.5-.4-.8-.1-.3-.3-.5-.4-.8-.1-.3-.3-.5-.4-.8-.1-.3-.3-.5-.4-.8-.1-.3-.2-.6-.4-.8l-.3-.9-.3-.9-.3-.9-.3-.9c-.1-.3-.2-.6-.2-.9-.1-.3-.1-.6-.2-.9s-.1-.6-.2-.9c-.1-.3-.1-.6-.2-.9 0-.3-.1-.6-.1-.9 0-.3-.1-.6-.1-.9 0-.3 0-.6-.1-.9v-.9-.9-.9-.9c0-.3 0-.6.1-.9 0-.3.1-.6.1-.9 0-.3.1-.6.1-.9 0-.3.1-.6.2-.9.1-.3.1-.6.2-.8.1-.3.1-.6.2-.8.1-.3.2-.5.2-.8.1-.3.2-.5.3-.8l24.1-66.3c.1-.3.2-.5.3-.8.1-.3.2-.5.3-.8.1-.3.2-.5.4-.8.1-.3.3-.5.4-.8.1-.3.3-.5.4-.8.1-.3.3-.5.5-.8.2-.3.3-.5.5-.8.2-.2.3-.5.5-.7.2-.2.4-.5.5-.7.2-.2.4-.5.6-.7.2-.2.4-.5.6-.7.2-.2.4-.5.6-.7.2-.2.4-.5.7-.7l.7-.7c.2-.2.5-.4.7-.6.2-.2.5-.4.7-.6.2-.2.5-.4.7-.6.2-.2.5-.4.8-.6.3-.2.5-.4.8-.6.3-.2.5-.4.8-.5.3-.2.5-.3.8-.5.3-.2.5-.3.8-.5s.5-.3.8-.4c.3-.1.5-.3.8-.4.3-.1.5-.3.8-.4.3-.1.5-.2.8-.4.3-.1.6-.2.8-.3.3-.1.6-.2.8-.3.3-.1.6-.2.8-.3.3-.1.5-.2.8-.2.3-.1.5-.1.8-.2s.5-.1.8-.2l69.2-12.3c.3 0 .5-.1.8-.1.3 0 .6-.1.8-.1.3 0 .6-.1.8-.1h3.6c.3 0 .6 0 .9.1.3 0 .6.1.9.1.3 0 .6.1.9.1.3.1.6.1.9.2.3.1.6.1.9.2.3.1.6.1.9.2l.9.3.9.3.9.3.9.3c.3.1.6.2.9.4.3.1.6.3.9.4.3.1.6.3.8.4.3.1.6.3.8.4.3.1.5.3.8.5.3.2.5.3.8.5.3.2.5.3.8.5.3.2.5.3.7.5.2.2.5.4.7.5.2.2.5.4.7.6.2.2.4.4.7.6l.6.6.6.6.6.6c.4.1.6.3.8.5z" fill="url(#d)" fill-opacity=".298"/></svg>