<svg width="45" height="45" xmlns="http://www.w3.org/2000/svg"><defs><linearGradient id="a"><stop offset="70%" stop-color="#52baed"/><stop offset="100%" stop-color="#8ad0f2"/></linearGradient></defs><path d="M22.5 45C34.926 45 45 34.926 45 22.5S34.926 0 22.5 0 0 10.074 0 22.5 10.074 45 22.5 45zm0-4.5c-9.941 0-18-8.059-18-18s8.059-18 18-18 18 8.059 18 18-8.059 18-18 18zm-4.966-9.659a2.25 2.25 0 0 0 3.182 0l12.375-12.375a2.25 2.25 0 0 0-3.182-3.182L19.125 26.1l-5.159-5.191a2.25 2.25 0 0 0-3.182 3.182l6.75 6.75z" fill="url(#a)"/></svg>